<?xml version="1.0" encoding="UTF-8"?>
<svg width="48px" height="48px" viewBox="0 0 48 48" version="1.1" xmlns="http://www.w3.org/2000/svg" xmlns:xlink="http://www.w3.org/1999/xlink">
    <title>编组 40</title>
    <g id="3-扫描管理" stroke="none" stroke-width="1" fill="none" fill-rule="evenodd">
        <g id="5.8-扫描管理-查看任务-综述信息-web资产探测" transform="translate(-1196.000000, -472.000000)">
            <g id="编组-14" transform="translate(1196.000000, 465.000000)">
                <g id="编组-40" transform="translate(0.000000, 7.000000)">
                    <path d="M8,0 L40,0 C44.418278,-8.11624501e-16 48,3.581722 48,8 L48,40 C48,44.418278 44.418278,48 40,48 L8,48 C3.581722,48 5.41083001e-16,44.418278 0,40 L0,8 C-5.41083001e-16,3.581722 3.581722,8.11624501e-16 8,0 Z" id="矩形备份-3" fill="#55A722" opacity="0.1"></path>
                    <g id="编组-29" transform="translate(16.000000, 14.000000)">
                        <polygon id="路径" fill="#55A722" points="0 0 15.4545455 0 15.4545455 5.45454545 0 5.45454545"></polygon>
                        <polygon id="路径" fill="#55A722" points="15.4545455 12.7272727 0 12.7272727 0 7.27272727 15.4545455 7.27272727"></polygon>
                        <polygon id="路径" fill="#55A722" points="15.4545455 20 0 20 0 14.5454545 15.4545455 14.5454545"></polygon>
                        <path d="M2.72727273,2.72727273 C2.72727273,3.22934977 3.13428659,3.63636364 3.63636364,3.63636364 C4.13844068,3.63636364 4.54545455,3.22934977 4.54545455,2.72727273 C4.54545455,2.22519568 4.13844068,1.81818182 3.63636364,1.81818182 C3.13428659,1.81818182 2.72727273,2.22519568 2.72727273,2.72727273 L2.72727273,2.72727273 Z" id="路径" fill="#FFFFFF"></path>
                        <path d="M2.72727273,10 C2.72727273,10.502077 3.13428659,10.9090909 3.63636364,10.9090909 C4.13844068,10.9090909 4.54545455,10.502077 4.54545455,10 C4.54545455,9.49792295 4.13844068,9.09090909 3.63636364,9.09090909 C3.13428659,9.09090909 2.72727273,9.49792295 2.72727273,10 L2.72727273,10 Z" id="路径" fill="#FFFFFF"></path>
                        <path d="M2.72727273,17.2727273 C2.72727273,17.7748043 3.13428659,18.1818182 3.63636364,18.1818182 C4.13844068,18.1818182 4.54545455,17.7748043 4.54545455,17.2727273 C4.54545455,16.7706502 4.13844068,16.3636364 3.63636364,16.3636364 C3.13428659,16.3636364 2.72727273,16.7706502 2.72727273,17.2727273 L2.72727273,17.2727273 Z" id="路径" fill="#FFFFFF"></path>
                    </g>
                </g>
            </g>
        </g>
    </g>
</svg>