<?xml version="1.0" encoding="UTF-8"?>
<svg width="48px" height="48px" viewBox="0 0 48 48" version="1.1" xmlns="http://www.w3.org/2000/svg" xmlns:xlink="http://www.w3.org/1999/xlink">
    <title>编组 49</title>
    <g id="3-扫描管理" stroke="none" stroke-width="1" fill="none" fill-rule="evenodd">
        <g id="5.8-扫描管理-查看任务-综述信息-web资产探测" transform="translate(-698.000000, -472.000000)" fill="#55A722">
            <g id="编组-13" transform="translate(698.000000, 465.000000)">
                <g id="编组-49" transform="translate(0.000000, 7.000000)">
                    <path d="M8,0 L40,0 C44.418278,-8.11624501e-16 48,3.581722 48,8 L48,40 C48,44.418278 44.418278,48 40,48 L8,48 C3.581722,48 5.41083001e-16,44.418278 0,40 L0,8 C-5.41083001e-16,3.581722 3.581722,8.11624501e-16 8,0 Z" id="矩形备份-5" opacity="0.1"></path>
                    <g id="域名-(1)" transform="translate(14.000000, 14.000000)" fill-rule="nonzero">
                        <path d="M17.9052632,17.131579 L3.09473683,17.131579 C2.81842103,17.131579 2.65263156,17.4631579 2.8736842,17.6842105 C4.80789474,19.7289474 7.51578947,21 10.5,21 C13.4842105,21 16.2473684,19.7289474 18.1263158,17.6842105 C18.3473684,17.4631579 18.1815789,17.131579 17.9052632,17.131579 Z M2.21052631,4.97368421 L18.7894737,4.97368421 C19.0657895,4.97368421 19.231579,4.64210527 19.0657895,4.42105262 C17.1868421,1.76842104 14.0368421,4.71202025e-16 10.5,4.71202025e-16 C6.96315787,4.71202025e-16 3.8131579,1.76842104 1.93421051,4.42105262 C1.76842104,4.64210524 1.93421051,4.97368421 2.21052631,4.97368421 L2.21052631,4.97368421 Z M18.7894737,6.63157895 L2.21052631,6.63157895 C0.994736843,6.63157895 9.4240405e-16,7.6263158 9.4240405e-16,8.84210526 L9.4240405e-16,13.2631579 C9.4240405e-16,14.4789474 0.994736843,15.4736842 2.21052631,15.4736842 L18.7894737,15.4736842 C20.0052632,15.4736842 21,14.4789474 21,13.2631579 L21,8.84210526 C21,7.6263158 20.0052632,6.63157895 18.7894737,6.63157895 Z M7.46052632,9.61578948 L6.63157895,13.2631579 C6.52105263,13.5947369 6.30000001,13.7052632 5.96842106,13.7052632 C5.63684211,13.7052632 5.41578949,13.5394737 5.30526316,13.2631579 L4.53157894,10.7210526 L3.75789472,13.2631579 C3.6473684,13.5394737 3.42631578,13.7052632 3.09473683,13.7052632 C2.76315788,13.7052632 2.54210526,13.5394737 2.43157893,13.2631579 L1.60263156,9.61578948 L1.60263156,9.39473683 C1.65789471,9.11842103 1.76842104,8.95263159 2.04473684,8.95263159 C2.32105263,8.95263159 2.54210526,9.11842106 2.59736841,9.45000001 L3.15,12.2684211 L3.97894737,9.39473683 C4.0894737,9.17368421 4.25526317,9.00789474 4.47631579,9.00789474 C4.75263159,9.00789474 4.91842107,9.11842106 4.97368421,9.39473683 L5.80263158,12.2684211 L6.35526315,9.45000001 C6.4105263,9.11842106 6.57631578,8.95263159 6.85263158,8.95263159 C7.12894737,8.95263159 7.29473685,9.11842106 7.29473685,9.39473683 C7.46052632,9.44999998 7.46052632,9.56052631 7.46052632,9.61578948 L7.46052632,9.61578948 Z M13.4289474,9.61578948 L12.6,13.2631579 C12.4894737,13.5947369 12.2684211,13.7052632 11.9368421,13.7052632 C11.6052632,13.7052632 11.3842105,13.5394737 11.2736842,13.2631579 L10.5,10.7210526 L9.72631578,13.2631579 C9.61578946,13.5394737 9.39473683,13.7052632 9.06315788,13.7052632 C8.73157894,13.7052632 8.51052631,13.5394737 8.39999999,13.2631579 L7.57105262,9.61578948 L7.57105262,9.39473683 C7.62631577,9.11842103 7.73684209,8.95263159 8.01315789,8.95263159 C8.28947369,8.95263159 8.51052631,9.11842106 8.56578946,9.45000001 L9.11842106,12.2684211 L9.94736843,9.39473683 C10.0578948,9.17368421 10.2236842,9.00789474 10.4447369,9.00789474 C10.7210526,9.00789474 10.8868421,9.11842106 10.9421053,9.39473683 L11.7710526,12.2684211 L12.3236842,9.45000001 C12.3789474,9.11842106 12.5447368,8.95263159 12.8210526,8.95263159 C13.0973684,8.95263159 13.2631579,9.11842106 13.2631579,9.39473683 C13.4842105,9.44999998 13.4842105,9.56052631 13.4289474,9.61578948 L13.4289474,9.61578948 Z M19.4526316,9.61578948 L18.6236842,13.2631579 C18.5131579,13.5947369 18.2921053,13.7052632 17.9605263,13.7052632 C17.6289474,13.7052632 17.4078948,13.5394737 17.2973684,13.2631579 L16.5236842,10.7210526 L15.75,13.2631579 C15.6394737,13.5394737 15.4184211,13.7052632 15.0868421,13.7052632 C14.7552632,13.7052632 14.5342105,13.5394737 14.4236842,13.2631579 L13.5947369,9.61578948 L13.5947369,9.39473683 C13.65,9.11842103 13.7605263,8.95263159 14.0368421,8.95263159 C14.3131579,8.95263159 14.5342105,9.11842106 14.5894737,9.45000001 L15.1421053,12.2684211 L15.9710526,9.39473683 C16.081579,9.17368421 16.2473684,9.00789474 16.4684211,9.00789474 C16.7447369,9.00789474 16.9105263,9.11842106 16.9657895,9.39473683 L17.7947368,12.2684211 L18.3473684,9.45000001 C18.4026316,9.11842106 18.568421,8.95263159 18.8447368,8.95263159 C19.1210526,8.95263159 19.2868421,9.11842106 19.2868421,9.39473683 C19.5078947,9.44999998 19.4526316,9.56052631 19.4526316,9.61578948 L19.4526316,9.61578948 Z" id="形状"></path>
                    </g>
                </g>
            </g>
        </g>
    </g>
</svg>