<?xml version="1.0" encoding="UTF-8"?>
<svg width="48px" height="48px" viewBox="0 0 48 48" version="1.1" xmlns="http://www.w3.org/2000/svg" xmlns:xlink="http://www.w3.org/1999/xlink">
    <title>编组 38</title>
    <g id="3-扫描管理" stroke="none" stroke-width="1" fill="none" fill-rule="evenodd">
        <g id="5.8-扫描管理-查看任务-综述信息-web资产探测" transform="translate(-354.000000, -472.000000)">
            <g id="编组-7" transform="translate(354.000000, 465.000000)">
                <g id="编组-38" transform="translate(0.000000, 7.000000)">
                    <path d="M8,0 L40,0 C44.418278,-8.11624501e-16 48,3.581722 48,8 L48,40 C48,44.418278 44.418278,48 40,48 L8,48 C3.581722,48 5.41083001e-16,44.418278 0,40 L0,8 C-5.41083001e-16,3.581722 3.581722,8.11624501e-16 8,0 Z" id="矩形" fill="#55A722" opacity="0.1"></path>
                    <g id="IP" transform="translate(12.000000, 12.000000)" fill-rule="nonzero">
                        <rect id="矩形" fill="#000000" opacity="0" x="0" y="0" width="24" height="24"></rect>
                        <path d="M12,1.5 C6.2015625,1.5 1.5,6.2015625 1.5,12 C1.5,17.7984375 6.2015625,22.5 12,22.5 C17.7984375,22.5 22.5,17.7984375 22.5,12 C22.5,6.2015625 17.7984375,1.5 12,1.5 Z" id="形状结合" fill="#55A722"></path>
                        <path d="M8.2078125,17.0625 L8.2078125,7.021875 L6.5625,7.021875 L6.5625,17.0625 L8.2078125,17.0625 Z M11.821875,17.0625 L11.821875,13.209375 L14.3109375,13.209375 C16.7578125,13.209375 17.98125,12.16875 17.98125,10.1015625 C17.98125,8.0484375 16.7578125,7.021875 14.3390625,7.021875 L10.1765625,7.021875 L10.1765625,17.0625 L11.821875,17.0625 Z M14.2125,11.803125 L11.821875,11.803125 L11.821875,8.428125 L14.2125,8.428125 C14.9296875,8.428125 15.4640625,8.5546875 15.8015625,8.821875 C16.1390625,9.075 16.321875,9.496875 16.321875,10.1015625 C16.321875,10.70625 16.153125,11.1421875 15.815625,11.409375 C15.478125,11.6625 14.94375,11.803125 14.2125,11.803125 Z" fill="#FFFFFF"></path>
                    </g>
                </g>
            </g>
        </g>
    </g>
</svg>