<?xml version="1.0" encoding="UTF-8"?>
<svg width="48px" height="48px" viewBox="0 0 48 48" version="1.1" xmlns="http://www.w3.org/2000/svg" xmlns:xlink="http://www.w3.org/1999/xlink">
    <title>编组 39</title>
    <g id="3-扫描管理" stroke="none" stroke-width="1" fill="none" fill-rule="evenodd">
        <g id="5.8-扫描管理-查看任务-综述信息-web资产探测" transform="translate(-775.000000, -472.000000)" fill="#55A722">
            <g id="编组-13" transform="translate(775.000000, 465.000000)">
                <g id="编组-39" transform="translate(0.000000, 7.000000)">
                    <path d="M8,0 L40,0 C44.418278,-8.11624501e-16 48,3.581722 48,8 L48,40 C48,44.418278 44.418278,48 40,48 L8,48 C3.581722,48 5.41083001e-16,44.418278 0,40 L0,8 C-5.41083001e-16,3.581722 3.581722,8.11624501e-16 8,0 Z" id="矩形备份-2" opacity="0.1"></path>
                    <g id="ipv6" transform="translate(13.000000, 13.000000)" fill-rule="nonzero">
                        <path d="M14.8824963,16.8234 C14.0409862,19.93805 12.5752188,22 10.8921987,22 C9.20917867,22 7.74341122,19.9375 6.90190117,16.8234 L14.8824963,16.8234 Z M20.0591579,16.8234 C18.7021528,18.9632836 16.6432261,20.5646737 14.2351386,21.3532 C15.2210044,19.9980983 15.9217261,18.4570902 16.2949131,16.8234 L20.0591579,16.8234 Z M5.44878387,16.8234 C5.83408497,18.4601966 6.54856743,20.0014243 7.54870887,21.3532 C5.14082466,20.5645619 3.08210704,18.9631833 1.7252395,16.8234 L5.44878387,16.8234 Z M21.0139693,6.47075 C22.3286769,9.34714561 22.3286769,12.6528544 21.0139693,15.52925 L0.986030698,15.52925 C-0.328676899,12.6528544 -0.328676899,9.34714561 0.986030698,6.47075 L21.0139693,6.47075 Z M20.2896107,8.34899999 L18.1847356,8.34899999 C17.6028286,8.34899999 17.1639234,8.39189999 16.8674699,8.47715 C16.3312135,8.62015001 15.9291587,8.9507 15.6607555,9.46990001 C15.3984024,9.98305001 15.2675008,10.5589 15.2675008,11.198 C15.2675008,11.61435 15.3302016,12.02795 15.4556031,12.4388 C15.5986048,12.8777 15.8092573,13.23135 16.0886606,13.4992 C16.3169133,13.7104 16.5880666,13.86165 16.9015703,13.95295 C17.2150741,14.04425 17.631429,14.0899 18.1506352,14.0899 C18.8749938,14.0899 19.4112502,13.9843 19.7588543,13.7731 C20.318211,13.431 20.5976144,12.9349 20.5976144,12.2848 C20.5976144,11.737 20.4122622,11.31185 20.0415577,11.0099 C19.8890379,10.8854059 19.7083028,10.8002329 19.5152015,10.76185 C19.307299,10.7162 18.9860951,10.6931 18.55269,10.6931 L16.6276671,10.6931 C16.628433,10.4641739 16.6690045,10.2371247 16.7475685,10.0221 C16.8218194,9.83069999 16.9274206,9.6866 17.0638222,9.58979999 C17.292075,9.43029998 17.7881809,9.35549999 18.55269,9.36704999 L20.2896107,9.36704999 L20.2896107,8.34899999 Z M2.40834764,8.34899999 L1.19283315,8.34899999 L1.19283315,14.0558 L2.40834764,14.0558 L2.40834764,8.34899999 Z M6.41239535,8.34899999 L3.5633614,8.34899999 L3.5633614,14.0558 L4.77832587,14.0558 L4.77832587,12.0615 L6.7286491,12.0615 C7.05975306,12.0615 7.32045616,12.0329 7.51185844,11.97625 C7.70271073,11.91905 7.88366286,11.81675 8.05471491,11.66825 C8.24336715,11.5027 8.3902189,11.2904 8.49582016,11.03025 C8.60087142,10.7712 8.65367205,10.49565 8.65367205,10.20525 C8.6564158,9.86796888 8.57413212,9.53543326 8.4144192,9.23834999 C8.19771662,8.84454998 7.90071308,8.58494999 7.5245086,8.45954999 C7.30230595,8.38529999 6.93105152,8.34845 6.41239535,8.34845 L6.41239535,8.34899999 Z M10.2195407,8.34899999 L8.85057438,8.34899999 L11.254653,14.0558 L12.4701675,14.0558 L14.9677473,8.34899999 L13.598781,8.34899999 L11.8965107,12.64395 L10.2195407,8.34899999 L10.2195407,8.34899999 Z M18.3475375,11.71115 C18.6555412,11.71115 18.8694937,11.75405 18.9888452,11.83985 C19.1714474,11.97075 19.2627484,12.16215 19.2627484,12.41295 C19.2627484,12.6522 19.1884976,12.8293 19.0405458,12.94315 C18.9411232,13.0153261 18.8272147,13.0650549 18.7066918,13.0889 C18.5757903,13.1175 18.3959381,13.1318 18.1676854,13.1318 C17.7914809,13.1318 17.5087776,13.10045 17.3206753,13.0372 C17.1371938,12.9781753 16.9799122,12.8572507 16.87572,12.6951 C16.7162181,12.45585 16.6337171,12.1275 16.6282171,11.71115 L18.3475375,11.71115 Z M6.45529586,9.36704999 C6.66594838,9.36704999 6.81995021,9.38684999 6.91730137,9.42700001 C7.18515455,9.53535002 7.31880614,9.78065 7.31880614,10.1629 C7.31880614,10.51655 7.2308051,10.7646 7.05370298,10.90705 C6.93435156,10.99835 6.72589906,11.044 6.42944555,11.044 L4.77832587,11.044 L4.77832587,9.36704999 L6.45529586,9.36704999 Z M10.8921987,0 C12.5752188,0 14.0272361,2.07624999 14.8824963,5.17660001 L6.90190117,5.17660001 C7.75716137,2.07625002 9.20917867,0 10.8921987,0 Z M14.2351386,0.646799999 C16.6458607,1.43036557 18.7063125,3.03294178 20.0591579,5.17660001 L16.3207634,5.17660001 C15.9387396,3.54126752 15.2292514,2.00031923 14.2351386,0.646799999 L14.2351386,0.646799999 Z M7.54870887,0.646799999 C6.54856743,1.99857567 5.83408497,3.5398034 5.44878387,5.17660001 L1.7252395,5.17660001 C3.08210704,3.03681669 5.14082466,1.43543811 7.54870887,0.646799999 L7.54870887,0.646799999 Z" id="形状"></path>
                    </g>
                </g>
            </g>
        </g>
    </g>
</svg>