<?xml version="1.0" encoding="UTF-8"?>
<svg width="48px" height="48px" viewBox="0 0 48 48" version="1.1" xmlns="http://www.w3.org/2000/svg" xmlns:xlink="http://www.w3.org/1999/xlink">
    <title>编组 50</title>
    <g id="3-扫描管理" stroke="none" stroke-width="1" fill="none" fill-rule="evenodd">
        <g id="5.8-扫描管理-查看任务-综述信息-web资产探测" transform="translate(-577.000000, -462.000000)" fill="#55A722">
            <g id="编组-50" transform="translate(577.000000, 462.000000)">
                <path d="M8,0 L40,0 C44.418278,-8.11624501e-16 48,3.581722 48,8 L48,40 C48,44.418278 44.418278,48 40,48 L8,48 C3.581722,48 5.41083001e-16,44.418278 0,40 L0,8 C-5.41083001e-16,3.581722 3.581722,8.11624501e-16 8,0 Z" id="矩形备份-5" opacity="0.1"></path>
                <g id="单位视角-关联IP地址网段icon" transform="translate(14.000000, 14.000000)" fill-rule="nonzero">
                    <path d="M10.71,18.3645 C10.6365,18.3645 10.5735,18.375 10.5,18.375 C6.153,18.375 2.625,14.847 2.625,10.5 C2.625,6.153 6.1635,2.625 10.5,2.625 C14.847,2.625 18.375,6.153 18.375,10.5 C18.375,10.5735 18.375,10.6365 18.3645,10.71 C19.362,11.3295 20.1495,12.264 20.601,13.3665 C20.8635,12.453 21,11.487 21,10.4895 C21,4.704 16.296,0 10.5,0 C4.704,0 0,4.704 0,10.5 C0,16.296 4.704,21 10.5,21 C11.4975,21 12.4635,20.8635 13.377,20.601 C12.264,20.16 11.3295,19.3725 10.71,18.3645 Z" id="路径"></path>
                    <path d="M15.3405,12.1905 L14.553,12.978 C14.343,13.1985 14.343,13.5555 14.5635,13.7655 C14.784,13.9755 15.12,13.9755 15.3405,13.7655 L16.128,12.978 C16.569,12.5475 17.283,12.5685 17.703,13.02 C18.1125,13.4505 18.1125,14.133 17.703,14.5635 L16.9155,15.351 C16.7055,15.5715 16.7055,15.9285 16.926,16.1385 C17.1465,16.3485 17.4825,16.3485 17.703,16.1385 L18.4905,15.351 C19.3515,14.469 19.341,13.062 18.459,12.201 C17.598,11.34 16.212,11.34 15.3405,12.1905 Z M15.3405,16.926 L14.553,17.7135 C14.112,18.144 13.398,18.123 12.978,17.6715 C12.5685,17.241 12.5685,16.5585 12.978,16.128 L13.7655,15.3405 C13.986,15.1305 13.9965,14.7735 13.776,14.553 C13.566,14.3325 13.209,14.322 12.9885,14.5425 L12.978,14.553 L12.1905,15.3405 C11.3295,16.2225 11.34,17.6295 12.222,18.4905 C13.0935,19.341 14.4795,19.341 15.3405,18.4905 L16.128,17.703 C16.338,17.4825 16.338,17.1255 16.1175,16.9155 C15.9075,16.716 15.561,16.716 15.3405,16.926 Z" id="形状"></path>
                    <path d="M14.1645,16.527 C14.385,16.7475 14.7315,16.7475 14.952,16.527 L16.527,14.952 C16.7475,14.7315 16.7475,14.385 16.527,14.1645 C16.3065,13.944 15.96,13.944 15.7395,14.1645 L14.1645,15.7395 C13.944,15.96 13.944,16.3065 14.1645,16.527 Z" id="路径"></path>
                    <path d="M5.292,6.0585 L7.35,6.0585 L7.35,14.952 L5.292,14.952 L5.292,6.0585 Z M10.668,12.579 L10.668,11.8335 L11.2035,11.8335 C12.222,10.6365 13.7445,9.8805 15.435,9.8805 L15.5925,9.8805 C15.6765,9.5655 15.708,9.219 15.708,8.841 C15.6345,7.0455 14.511,6.111 12.3585,6.0585 L8.6415,6.0585 L8.6415,14.952 L9.9015,14.952 C9.975,14.091 10.248,13.2825 10.668,12.579 Z M10.6575,7.581 L11.991,7.581 C13.041,7.6125 13.5765,8.0535 13.608,8.9145 C13.5765,9.807 13.041,10.2585 11.991,10.29 L10.6575,10.29 L10.6575,7.581 Z" id="形状"></path>
                </g>
            </g>
        </g>
    </g>
</svg>