<?xml version="1.0" encoding="UTF-8"?>
<svg width="48px" height="48px" viewBox="0 0 48 48" version="1.1" xmlns="http://www.w3.org/2000/svg" xmlns:xlink="http://www.w3.org/1999/xlink">
    <title>编组 43</title>
    <g id="3-扫描管理" stroke="none" stroke-width="1" fill="none" fill-rule="evenodd">
        <g id="5.8-扫描管理-查看任务-综述信息-web资产探测" transform="translate(-1617.000000, -472.000000)" fill="#55A722">
            <g id="编组-28" transform="translate(1617.000000, 465.000000)">
                <g id="编组-43" transform="translate(0.000000, 7.000000)">
                    <path d="M8,0 L40,0 C44.418278,-8.11624501e-16 48,3.581722 48,8 L48,40 C48,44.418278 44.418278,48 40,48 L8,48 C3.581722,48 5.41083001e-16,44.418278 0,40 L0,8 C-5.41083001e-16,3.581722 3.581722,8.11624501e-16 8,0 Z" id="矩形备份-4" opacity="0.1"></path>
                    <g id="端口配置" transform="translate(14.000000, 14.000000)" fill-rule="nonzero">
                        <path d="M17.8129139,17.6219379 L3.18708609,17.6219379 C1.42822975,17.6187921 0.00318921576,16.2131452 0,14.4782254 L0,3.14371257 C0.0031892272,1.40879277 1.42822976,0.00314582454 3.18708609,0 L17.8129139,0 C19.5717702,0.00314582454 20.9968108,1.40879277 21,3.14371257 L21,14.4782254 C20.9968108,16.2131452 19.5717702,17.6187921 17.8129139,17.6219379 Z M3.18708609,1.71475231 C2.38700471,1.71475231 1.7384106,2.35451961 1.7384106,3.14371257 L1.7384106,14.4782254 C1.7384106,14.8572092 1.89103846,15.2206708 2.16271782,15.4886529 C2.43439717,15.7566349 2.80287346,15.9071856 3.18708609,15.9071856 L17.8129139,15.9071856 C18.1971265,15.9071856 18.5656028,15.7566349 18.8372822,15.4886529 C19.1089615,15.2206708 19.2615894,14.8572092 19.2615894,14.4782254 L19.2615894,3.14371257 C19.2615894,2.35451961 18.6129953,1.71475231 17.8129139,1.71475231 L3.18708609,1.71475231 Z" id="形状"></path>
                        <path d="M5.10513244,3.39520958 L15.8948676,3.39520958 C16.6674945,3.39520958 17.0538079,3.77626565 17.0538079,4.5383778 L17.0538079,13.0778443 C17.0538079,13.8399565 16.6674945,14.2210125 15.8948676,14.2210125 L5.10513244,14.2210125 C4.33250552,14.2210125 3.94619205,13.8399565 3.94619205,13.0778443 L3.94619205,4.5383778 C3.94619205,3.77626566 4.33250552,3.39520958 5.10513244,3.39520958 Z" id="路径"></path>
                        <path d="M7.19122516,18.6793685 L13.8145695,18.6793685 C14.4906181,18.6793685 14.8286424,19.0127926 14.8286424,19.6796407 L14.8286424,19.9997278 C14.8286424,20.6665759 14.4906181,21 13.8145695,21 L7.19122516,21 C6.5151766,21 6.17715231,20.6665759 6.17715231,19.9997278 L6.17715231,19.6796407 C6.17715231,19.0127926 6.5151766,18.6793685 7.19122516,18.6793685 Z" id="路径"></path>
                    </g>
                </g>
            </g>
        </g>
    </g>
</svg>