<?xml version="1.0" encoding="UTF-8"?>
<svg width="16px" height="16px" viewBox="0 0 16 16" version="1.1" xmlns="http://www.w3.org/2000/svg" xmlns:xlink="http://www.w3.org/1999/xlink">
    <title>icon-成功</title>
    <g id="3-扫描管理" stroke="none" stroke-width="1" fill="none" fill-rule="evenodd">
        <g id="5.2-扫描管理-查看任务-任务参数" transform="translate(-280.000000, -310.000000)" fill="#68B92E">
            <g id="编组" transform="translate(280.000000, 269.000000)">
                <g id="编组-11" transform="translate(0.000000, 38.000000)">
                    <path d="M8,19 C3.58162268,19 0,15.4183773 0,11 C0,6.58162268 3.58162268,3 8,3 C12.4183773,3 16,6.58162268 16,11 C16,15.4183773 12.4183773,19 8,19 L8,19 Z M12.3008001,12.8365183 L5.93601295,6.69789924 C5.7444871,6.50810766 5.43344912,6.50810766 5.24192327,6.69789924 L2.81031106,9.00120992 C2.6187852,9.19100151 2.6187852,9.49922304 2.81031106,9.68901463 L2.81031106,9.68901463 C3.00183691,9.87880621 3.31287489,9.87880621 3.50440074,9.68901463 L5.58973421,7.72884713 L11.6067104,13.524323 C11.7982362,13.7141146 12.1092742,13.7141146 12.3008001,13.524323 L12.3008001,13.524323 C12.4923259,13.3345314 12.4923259,13.0263099 12.3008001,12.8365183 L12.3008001,12.8365183 Z" id="icon-成功" transform="translate(8.000000, 11.000000) scale(1, -1) translate(-8.000000, -11.000000) "></path>
                </g>
            </g>
        </g>
    </g>
</svg>