<?xml version="1.0" encoding="UTF-8"?>
<svg width="16px" height="16px" viewBox="0 0 16 16" version="1.1" xmlns="http://www.w3.org/2000/svg" xmlns:xlink="http://www.w3.org/1999/xlink">
    <title>形状结合</title>
    <g id="页面-1" stroke="none" stroke-width="1" fill="none" fill-rule="evenodd">
        <g id="iPhone-SE" transform="translate(-288.000000, -179.000000)" fill="#EC4F4F" fill-rule="nonzero">
            <path d="M296,179 C297.08,179 298.127273,179.210909 299.114545,179.629091 C300.067273,180.030909 300.923636,180.609091 301.658182,181.343636 C302.392727,182.08 302.969091,182.934545 303.372727,183.887273 C303.789091,184.872727 304,185.92 304,187 C304,188.08 303.789091,189.127273 303.370909,190.114545 C302.969091,191.067273 302.390909,191.923636 301.656364,192.658182 C300.92,193.392727 300.065455,193.969091 299.112727,194.372727 C298.127273,194.789091 297.08,195 296,195 C294.92,195 293.872727,194.789091 292.885455,194.370909 C291.932727,193.969091 291.076364,193.390909 290.341818,192.656364 C289.607273,191.92 289.030909,191.065455 288.627273,190.112727 C288.210909,189.127273 288,188.08 288,187 C288,185.92 288.210909,184.872727 288.629091,183.885455 C289.030909,182.932727 289.609091,182.076364 290.343636,181.341818 C291.08,180.607273 291.934545,180.030909 292.887273,179.627273 C293.872727,179.210909 294.92,179 296,179 Z M298.499681,184 C298.371777,184 298.242484,184.048534 298.145166,184.146988 L298.145166,184.146988 L296,186.293572 L293.854834,184.148375 C293.757516,184.049921 293.628223,184.001387 293.500319,184.001387 C293.372415,184.001387 293.244512,184.049921 293.147194,184.146988 C292.951168,184.341124 292.951168,184.657287 293.145804,184.852809 L293.145804,184.852809 L295.29375,187.00078 L293.145804,189.14875 C292.951168,189.344272 292.951168,189.660436 293.147194,189.854571 C293.34322,190.048707 293.660198,190.048707 293.854834,189.853185 L293.854834,189.853185 L296,187.707988 L298.145166,189.853185 C298.339802,190.048707 298.65678,190.048707 298.852806,189.854571 C299.048832,189.660436 299.048832,189.344272 298.852806,189.14875 L298.852806,189.14875 L296.70625,187.00078 L298.854196,184.851423 C299.048832,184.655901 299.048832,184.339737 298.852806,184.145602 C298.755488,184.048534 298.627585,184 298.499681,184 Z" id="形状结合"></path>
        </g>
    </g>
</svg>